<!--?xml version="1.0" standalone="no"?-->
              <svg id="sw-js-blob-svg" viewBox="0 0 100 100" xmlns="http://www.w3.org/2000/svg" version="1.1">
                    <defs> 
                        <linearGradient id="sw-gradient" x1="0" x2="1" y1="1" y2="0">
                            <stop id="stop1" stop-color="rgba(248, 117, 55, 1)" offset="0%" style="--darkreader-inline-stopcolor: #a93a06;" data-darkreader-inline-stopcolor=""></stop>
                            <stop id="stop2" stop-color="rgba(251, 168, 31, 1)" offset="100%" style="--darkreader-inline-stopcolor: #b97403;" data-darkreader-inline-stopcolor=""></stop>
                        </linearGradient>
                    </defs>
                <path fill="url(#sw-gradient)" d="M16.7,-28.5C21.2,-26.3,24.3,-21,27.9,-15.8C31.5,-10.5,35.6,-5.3,37.6,1.1C39.6,7.6,39.4,15.1,35.8,20.3C32.2,25.5,25.1,28.3,18.5,30.5C12,32.6,6,34,-0.1,34.2C-6.2,34.4,-12.5,33.4,-17.1,30.2C-21.8,27,-24.8,21.5,-27.4,16.1C-29.9,10.7,-31.9,5.4,-32.8,-0.6C-33.8,-6.5,-33.8,-13,-30.6,-17.3C-27.5,-21.7,-21.3,-23.9,-15.7,-25.5C-10,-27.2,-5,-28.2,0.5,-29.1C6.1,-30,12.1,-30.8,16.7,-28.5Z" width="100%" height="100%" transform="translate(50 50)" style="transition: all 0.3s ease 0s;" stroke-width="0" stroke="url(#sw-gradient)"></path>
              </svg>