<svg id="visual" viewBox="100 100 700 600" width="1200" height="900" xmlns="http://www.w3.org/2000/svg" xmlns:xlink="http://www.w3.org/1999/xlink" version="1.1"><g transform="translate(391.35165593466513 370.47282450657417)"><path d="M153.8 -239.3C187.5 -246.8 195.1 -181.9 227.6 -130C260.1 -78 317.5 -39 316.4 -0.7C315.2 37.7 255.5 75.3 201.6 90.3C147.8 105.4 99.9 97.7 67.3 90C34.7 82.4 17.3 74.7 2.7 70.1C-12 65.5 -24 63.9 -52.3 69.1C-80.6 74.2 -125.2 86.1 -158 75.7C-190.8 65.3 -211.9 32.7 -190.4 12.4C-168.9 -7.8 -104.7 -15.6 -81.8 -43.2C-58.9 -70.8 -77.2 -118.1 -70.4 -126.2C-63.7 -134.3 -31.8 -103.1 14.1 -127.5C60 -151.9 120 -231.8 153.8 -239.3" fill="#BB004B"></path></g></svg>