<?xml version="1.0" standalone="no"?>
<!DOCTYPE svg PUBLIC "-//W3C//DTD SVG 20010904//EN"
 "http://www.w3.org/TR/2001/REC-SVG-20010904/DTD/svg10.dtd">
<svg version="1.0" xmlns="http://www.w3.org/2000/svg"
 width="260.000000pt" height="260.000000pt" viewBox="0 0 260.000000 260.000000"
 preserveAspectRatio="xMidYMid meet">
<metadata>
Created by potrace 1.14, written by Peter Selinger 2001-2017
</metadata>
<g transform="translate(0.000000,260.000000) scale(0.100000,-0.100000)"
fill="#000000" stroke="none">
<path d="M2030 2563 c-53 -145 -98 -213 -199 -305 -60 -54 -207 -138 -243
-138 -20 0 -42 -26 -35 -43 3 -8 42 -29 87 -47 167 -67 298 -197 366 -363 26
-64 38 -83 57 -88 22 -6 27 0 57 65 84 181 198 294 380 373 41 18 69 33 61 33
-11 0 -11 3 -1 15 20 24 5 42 -56 64 -51 20 -125 58 -163 86 -39 28 -151 146
-176 185 -16 25 -41 77 -56 115 -20 52 -33 71 -48 73 -15 3 -24 -4 -31 -25z"/>
<path d="M404 1555 c-56 -17 -121 -51 -181 -96 -56 -42 -77 -86 -66 -139 6
-32 37 -70 57 -70 7 0 19 -11 26 -25 12 -22 7 -56 -45 -297 -67 -310 -73 -342
-113 -529 -18 -83 -26 -142 -21 -151 5 -9 22 -21 39 -28 16 -7 28 -16 25 -20
-9 -14 77 -41 124 -39 59 3 98 16 139 46 42 32 66 80 85 178 9 44 39 186 67
315 28 129 56 261 62 294 11 52 18 63 64 104 52 46 121 80 163 81 22 1 23 -1
16 -46 -4 -27 -15 -85 -26 -130 -10 -44 -21 -96 -24 -115 -3 -18 -11 -53 -16
-78 -6 -25 -12 -54 -15 -64 -2 -10 -22 -105 -45 -210 -65 -302 -64 -286 -22
-306 18 -8 33 -20 33 -26 0 -18 52 -37 115 -40 104 -6 189 49 216 139 10 32
37 150 45 197 2 14 18 86 34 160 16 74 32 146 34 160 3 14 16 74 29 133 20 91
30 114 56 141 37 38 106 75 156 83 42 7 42 6 19 -99 -8 -40 -18 -84 -20 -98
-3 -14 -26 -122 -51 -240 -51 -243 -54 -320 -13 -401 25 -47 26 -49 90 -100
66 -53 104 -70 174 -76 142 -12 295 69 361 192 24 46 26 56 20 123 -8 96 -18
120 -58 137 -47 19 -67 11 -101 -42 -29 -45 -77 -76 -104 -65 -16 6 -13 65 8
157 6 28 13 61 16 75 3 14 13 63 24 110 67 299 64 282 63 375 0 151 -37 247
-114 299 -79 54 -194 58 -296 11 -63 -29 -89 -47 -163 -120 -46 -45 -56 -50
-57 -34 -2 28 -45 99 -80 131 -33 31 -108 58 -162 58 -81 0 -211 -61 -282
-134 l-26 -26 -6 46 c-3 27 -13 54 -26 68 -41 44 -139 57 -227 31z"/>
</g>
</svg>
